<mxfile host="65bd71144e">
    <diagram id="5DIWrdhLwUrtFaI1QlfB" name="Page-1">
        <mxGraphModel dx="1197" dy="797" grid="1" gridSize="10" guides="1" tooltips="1" connect="1" arrows="1" fold="1" page="1" pageScale="1" pageWidth="850" pageHeight="1100" math="1" shadow="0">
            <root>
                <mxCell id="0"/>
                <mxCell id="1" parent="0"/>
                <mxCell id="259" value="" style="endArrow=blockThin;html=1;rounded=0;startSize=14;endSize=12;sourcePerimeterSpacing=8;targetPerimeterSpacing=8;curved=1;endFill=1;" parent="1" edge="1">
                    <mxGeometry width="50" height="50" relative="1" as="geometry">
                        <mxPoint x="320" y="440" as="sourcePoint"/>
                        <mxPoint x="320" y="160" as="targetPoint"/>
                    </mxGeometry>
                </mxCell>
                <mxCell id="260" value="" style="endArrow=none;html=1;rounded=0;startSize=14;endSize=14;sourcePerimeterSpacing=8;targetPerimeterSpacing=8;curved=1;" parent="1" edge="1">
                    <mxGeometry width="50" height="50" relative="1" as="geometry">
                        <mxPoint x="360" y="440" as="sourcePoint"/>
                        <mxPoint x="700" y="440" as="targetPoint"/>
                        <Array as="points">
                            <mxPoint x="420" y="410"/>
                            <mxPoint x="430" y="360"/>
                            <mxPoint x="460" y="280"/>
                            <mxPoint x="490" y="290"/>
                            <mxPoint x="520" y="410"/>
                            <mxPoint x="560" y="400"/>
                            <mxPoint x="590" y="190"/>
                            <mxPoint x="630" y="200"/>
                            <mxPoint x="660" y="430"/>
                        </Array>
                    </mxGeometry>
                </mxCell>
                <mxCell id="261" value="&lt;font style=&quot;font-size: 25px;&quot;&gt;$$f(x)$$&lt;/font&gt;" style="text;html=1;strokeColor=none;fillColor=none;align=center;verticalAlign=middle;whiteSpace=wrap;rounded=0;" parent="1" vertex="1">
                    <mxGeometry x="290" y="160" width="160" height="30" as="geometry"/>
                </mxCell>
                <mxCell id="262" value="$$\theta_1$$" style="text;html=1;align=center;verticalAlign=middle;resizable=0;points=[];autosize=1;strokeColor=none;fillColor=none;fontSize=25;" parent="1" vertex="1">
                    <mxGeometry x="255" y="410" width="170" height="40" as="geometry"/>
                </mxCell>
                <mxCell id="265" value="" style="endArrow=block;html=1;rounded=0;fontSize=25;startSize=14;endSize=5;sourcePerimeterSpacing=8;targetPerimeterSpacing=8;curved=1;endFill=1;" parent="1" edge="1">
                    <mxGeometry width="50" height="50" relative="1" as="geometry">
                        <mxPoint x="425" y="337" as="sourcePoint"/>
                        <mxPoint x="432" y="314" as="targetPoint"/>
                    </mxGeometry>
                </mxCell>
                <mxCell id="266" value="" style="endArrow=block;html=1;rounded=0;fontSize=25;startSize=14;endSize=5;sourcePerimeterSpacing=8;targetPerimeterSpacing=8;curved=1;endFill=1;" parent="1" edge="1">
                    <mxGeometry width="50" height="50" relative="1" as="geometry">
                        <mxPoint x="402" y="395" as="sourcePoint"/>
                        <mxPoint x="423" y="341" as="targetPoint"/>
                    </mxGeometry>
                </mxCell>
                <mxCell id="267" value="" style="endArrow=block;html=1;rounded=0;fontSize=25;startSize=14;endSize=5;sourcePerimeterSpacing=8;targetPerimeterSpacing=8;curved=1;endFill=1;" parent="1" edge="1">
                    <mxGeometry width="50" height="50" relative="1" as="geometry">
                        <mxPoint x="358" y="430" as="sourcePoint"/>
                        <mxPoint x="400" y="400" as="targetPoint"/>
                    </mxGeometry>
                </mxCell>
                <mxCell id="268" value="" style="endArrow=block;html=1;rounded=0;fontSize=25;startSize=14;endSize=5;sourcePerimeterSpacing=8;targetPerimeterSpacing=8;curved=1;endFill=1;" parent="1" edge="1">
                    <mxGeometry width="50" height="50" relative="1" as="geometry">
                        <mxPoint x="433" y="313" as="sourcePoint"/>
                        <mxPoint x="442" y="290" as="targetPoint"/>
                    </mxGeometry>
                </mxCell>
                <mxCell id="269" value="" style="endArrow=block;html=1;rounded=0;fontSize=25;startSize=14;endSize=5;sourcePerimeterSpacing=8;targetPerimeterSpacing=8;curved=1;endFill=1;" parent="1" edge="1">
                    <mxGeometry width="50" height="50" relative="1" as="geometry">
                        <mxPoint x="443" y="289" as="sourcePoint"/>
                        <mxPoint x="459" y="277" as="targetPoint"/>
                    </mxGeometry>
                </mxCell>
                <mxCell id="270" value="" style="ellipse;whiteSpace=wrap;html=1;aspect=fixed;fontSize=25;" parent="1" vertex="1">
                    <mxGeometry x="467" y="270" width="10" height="10" as="geometry"/>
                </mxCell>
                <mxCell id="271" value="" style="ellipse;whiteSpace=wrap;html=1;aspect=fixed;fontSize=25;" parent="1" vertex="1">
                    <mxGeometry x="603" y="183" width="10" height="10" as="geometry"/>
                </mxCell>
                <mxCell id="272" value="" style="shape=flexArrow;endArrow=classic;html=1;rounded=0;fontSize=25;startSize=14;endSize=2.4284644194756555;sourcePerimeterSpacing=8;targetPerimeterSpacing=8;curved=1;width=2.0224719101123596;endWidth=11.292590589507842;" parent="1" edge="1">
                    <mxGeometry width="50" height="50" relative="1" as="geometry">
                        <mxPoint x="480" y="280" as="sourcePoint"/>
                        <mxPoint x="560" y="350" as="targetPoint"/>
                    </mxGeometry>
                </mxCell>
                <mxCell id="273" value="" style="edgeStyle=none;orthogonalLoop=1;jettySize=auto;html=1;rounded=0;endArrow=block;startSize=14;endSize=5;sourcePerimeterSpacing=8;targetPerimeterSpacing=8;curved=1;dashed=1;strokeColor=#FF0000;endFill=1;" parent="1" edge="1">
                    <mxGeometry width="140" relative="1" as="geometry">
                        <mxPoint x="562" y="338" as="sourcePoint"/>
                        <mxPoint x="440" y="280" as="targetPoint"/>
                        <Array as="points">
                            <mxPoint x="510" y="190"/>
                        </Array>
                    </mxGeometry>
                </mxCell>
            </root>
        </mxGraphModel>
    </diagram>
</mxfile>